<mxfile>
    <diagram id="HlzVMpEKUvmks-eyj2rE" name="Page-1">
        <mxGraphModel dx="874" dy="1626" grid="1" gridSize="10" guides="1" tooltips="1" connect="1" arrows="1" fold="1" page="1" pageScale="1" pageWidth="850" pageHeight="1100" math="0" shadow="0">
            <root>
                <mxCell id="0"/>
                <mxCell id="106" value="Grouping" parent="0"/>
                <mxCell id="3" value="" style="rounded=0;whiteSpace=wrap;html=1;" parent="106" vertex="1">
                    <mxGeometry x="40" y="20" width="1080" height="790" as="geometry"/>
                </mxCell>
                <mxCell id="4" value="" style="rounded=0;whiteSpace=wrap;html=1;direction=west;" parent="106" vertex="1">
                    <mxGeometry x="120" y="90" width="970" height="680" as="geometry"/>
                </mxCell>
                <mxCell id="175" style="edgeStyle=orthogonalEdgeStyle;rounded=0;orthogonalLoop=1;jettySize=auto;html=1;entryX=0.565;entryY=1.033;entryDx=0;entryDy=0;entryPerimeter=0;" parent="106" source="162" target="82" edge="1">
                    <mxGeometry relative="1" as="geometry"/>
                </mxCell>
                <mxCell id="181" value="service&lt;br&gt;account" style="edgeStyle=orthogonalEdgeStyle;rounded=0;orthogonalLoop=1;jettySize=auto;html=1;exitX=0.005;exitY=0.63;exitDx=0;exitDy=0;exitPerimeter=0;entryX=0.995;entryY=0.63;entryDx=0;entryDy=0;entryPerimeter=0;" edge="1" parent="106" source="94" target="9">
                    <mxGeometry relative="1" as="geometry"/>
                </mxCell>
                <mxCell id="182" style="edgeStyle=orthogonalEdgeStyle;rounded=0;orthogonalLoop=1;jettySize=auto;html=1;exitX=0.005;exitY=0.63;exitDx=0;exitDy=0;exitPerimeter=0;entryX=0.995;entryY=0.63;entryDx=0;entryDy=0;entryPerimeter=0;" edge="1" parent="106" source="94" target="9">
                    <mxGeometry relative="1" as="geometry"/>
                </mxCell>
                <mxCell id="1" value="Content" parent="0"/>
                <mxCell id="5" value="AKS Cluster" style="aspect=fixed;html=1;points=[];align=center;image;fontSize=12;image=img/lib/azure2/containers/Kubernetes_Services.svg;" parent="1" vertex="1">
                    <mxGeometry x="10" y="-10" width="68" height="60" as="geometry"/>
                </mxCell>
                <mxCell id="6" value="" style="rounded=0;whiteSpace=wrap;html=1;" parent="1" vertex="1">
                    <mxGeometry x="220" y="180" width="340" height="340" as="geometry"/>
                </mxCell>
                <mxCell id="7" value="tenant1" style="html=1;dashed=0;whitespace=wrap;fillColor=#2875E2;strokeColor=#ffffff;points=[[0.005,0.63,0],[0.1,0.2,0],[0.9,0.2,0],[0.5,0,0],[0.995,0.63,0],[0.72,0.99,0],[0.5,1,0],[0.28,0.99,0]];shape=mxgraph.kubernetes.icon;prIcon=ns" parent="1" vertex="1">
                    <mxGeometry x="158.75" y="150" width="115.5" height="70" as="geometry"/>
                </mxCell>
                <mxCell id="8" value="" style="group" parent="1" vertex="1" connectable="0">
                    <mxGeometry x="355" y="276" width="120" height="68" as="geometry"/>
                </mxCell>
                <mxCell id="9" value="" style="html=1;dashed=0;whitespace=wrap;fillColor=#2875E2;strokeColor=#ffffff;points=[[0.005,0.63,0],[0.1,0.2,0],[0.9,0.2,0],[0.5,0,0],[0.995,0.63,0],[0.72,0.99,0],[0.5,1,0],[0.28,0.99,0]];shape=mxgraph.kubernetes.icon;prIcon=pod" parent="8" vertex="1">
                    <mxGeometry x="7.5" width="50" height="48" as="geometry"/>
                </mxCell>
                <mxCell id="10" value="app-xxxx" style="text;html=1;strokeColor=none;fillColor=none;align=center;verticalAlign=middle;whiteSpace=wrap;rounded=0;" parent="8" vertex="1">
                    <mxGeometry x="-27.5" y="48" width="120" height="20" as="geometry"/>
                </mxCell>
                <mxCell id="11" value="" style="group" parent="1" vertex="1" connectable="0">
                    <mxGeometry x="355" y="400" width="110" height="70" as="geometry"/>
                </mxCell>
                <mxCell id="12" value="" style="html=1;dashed=0;whitespace=wrap;fillColor=#2875E2;strokeColor=#ffffff;points=[[0.005,0.63,0],[0.1,0.2,0],[0.9,0.2,0],[0.5,0,0],[0.995,0.63,0],[0.72,0.99,0],[0.5,1,0],[0.28,0.99,0]];shape=mxgraph.kubernetes.icon;prIcon=svc" parent="11" vertex="1">
                    <mxGeometry x="7.5" width="50" height="48" as="geometry"/>
                </mxCell>
                <mxCell id="13" value="app" style="text;html=1;strokeColor=none;fillColor=none;align=center;verticalAlign=middle;whiteSpace=wrap;rounded=0;" parent="11" vertex="1">
                    <mxGeometry x="-22.5" y="50" width="110" height="20" as="geometry"/>
                </mxCell>
                <mxCell id="14" value="" style="group" parent="1" vertex="1" connectable="0">
                    <mxGeometry x="227.5" y="396" width="105" height="68" as="geometry"/>
                </mxCell>
                <UserObject label="" link="http://yahoo.com" id="15">
                    <mxCell style="html=1;dashed=0;whitespace=wrap;fillColor=#2875E2;strokeColor=#ffffff;points=[[0.005,0.63,0],[0.1,0.2,0],[0.9,0.2,0],[0.5,0,0],[0.995,0.63,0],[0.72,0.99,0],[0.5,1,0],[0.28,0.99,0]];shape=mxgraph.kubernetes.icon;prIcon=ing" parent="14" vertex="1">
                        <mxGeometry x="27.5" width="50" height="48" as="geometry"/>
                    </mxCell>
                </UserObject>
                <mxCell id="16" value="app1.foo.com" style="text;html=1;strokeColor=none;fillColor=none;align=center;verticalAlign=middle;whiteSpace=wrap;rounded=0;" parent="14" vertex="1">
                    <mxGeometry y="48" width="105" height="20" as="geometry"/>
                </mxCell>
                <mxCell id="17" value="creates" style="edgeStyle=orthogonalEdgeStyle;rounded=0;orthogonalLoop=1;jettySize=auto;html=1;entryX=0.005;entryY=0.63;entryDx=0;entryDy=0;entryPerimeter=0;" parent="1" source="49" target="9" edge="1">
                    <mxGeometry relative="1" as="geometry"/>
                </mxCell>
                <mxCell id="18" value="" style="rounded=0;whiteSpace=wrap;html=1;" parent="1" vertex="1">
                    <mxGeometry x="220" y="570" width="840" height="170" as="geometry"/>
                </mxCell>
                <mxCell id="19" value="ingress&lt;br&gt;-basic" style="html=1;dashed=0;whitespace=wrap;fillColor=#2875E2;strokeColor=#ffffff;points=[[0.005,0.63,0],[0.1,0.2,0],[0.9,0.2,0],[0.5,0,0],[0.995,0.63,0],[0.72,0.99,0],[0.5,1,0],[0.28,0.99,0]];shape=mxgraph.kubernetes.icon;prIcon=ns" parent="1" vertex="1">
                    <mxGeometry x="168.5" y="540" width="96" height="70" as="geometry"/>
                </mxCell>
                <mxCell id="20" value="" style="group" parent="1" vertex="1" connectable="0">
                    <mxGeometry x="900" y="640" width="65" height="70" as="geometry"/>
                </mxCell>
                <mxCell id="21" value="" style="html=1;dashed=0;whitespace=wrap;fillColor=#2875E2;strokeColor=#ffffff;points=[[0.005,0.63,0],[0.1,0.2,0],[0.9,0.2,0],[0.5,0,0],[0.995,0.63,0],[0.72,0.99,0],[0.5,1,0],[0.28,0.99,0]];shape=mxgraph.kubernetes.icon;prIcon=svc" parent="20" vertex="1">
                    <mxGeometry x="7.5" width="50" height="48" as="geometry"/>
                </mxCell>
                <mxCell id="22" value="nginx" style="text;html=1;strokeColor=none;fillColor=none;align=center;verticalAlign=middle;whiteSpace=wrap;rounded=0;" parent="20" vertex="1">
                    <mxGeometry y="50" width="65" height="20" as="geometry"/>
                </mxCell>
                <mxCell id="23" value="" style="group" parent="1" vertex="1" connectable="0">
                    <mxGeometry x="600" y="621" width="65" height="68" as="geometry"/>
                </mxCell>
                <mxCell id="24" value="" style="html=1;dashed=0;whitespace=wrap;fillColor=#2875E2;strokeColor=#ffffff;points=[[0.005,0.63,0],[0.1,0.2,0],[0.9,0.2,0],[0.5,0,0],[0.995,0.63,0],[0.72,0.99,0],[0.5,1,0],[0.28,0.99,0]];shape=mxgraph.kubernetes.icon;prIcon=pod" parent="23" vertex="1">
                    <mxGeometry x="7.5" width="50" height="48" as="geometry"/>
                </mxCell>
                <mxCell id="25" value="nginx" style="text;html=1;strokeColor=none;fillColor=none;align=center;verticalAlign=middle;whiteSpace=wrap;rounded=0;" parent="23" vertex="1">
                    <mxGeometry y="48" width="65" height="20" as="geometry"/>
                </mxCell>
                <mxCell id="26" style="edgeStyle=orthogonalEdgeStyle;rounded=0;orthogonalLoop=1;jettySize=auto;html=1;" parent="1" source="27" edge="1">
                    <mxGeometry relative="1" as="geometry">
                        <mxPoint x="579" y="892" as="targetPoint"/>
                    </mxGeometry>
                </mxCell>
                <mxCell id="27" value="Public IP" style="aspect=fixed;html=1;points=[];align=center;image;fontSize=12;image=img/lib/azure2/networking/Public_IP_Addresses.svg;" parent="1" vertex="1">
                    <mxGeometry x="550" y="960" width="65" height="52" as="geometry"/>
                </mxCell>
                <mxCell id="28" value="routes" style="edgeStyle=orthogonalEdgeStyle;rounded=0;orthogonalLoop=1;jettySize=auto;html=1;" parent="1" source="29" target="22" edge="1">
                    <mxGeometry x="-0.514" y="-11" relative="1" as="geometry">
                        <mxPoint y="1" as="offset"/>
                    </mxGeometry>
                </mxCell>
                <mxCell id="29" value="Public Load Balancer" style="aspect=fixed;html=1;points=[];align=center;image;fontSize=12;image=img/lib/azure2/networking/Load_Balancers.svg;" parent="1" vertex="1">
                    <mxGeometry x="553" y="820" width="72" height="72" as="geometry"/>
                </mxCell>
                <mxCell id="30" style="edgeStyle=orthogonalEdgeStyle;rounded=0;orthogonalLoop=1;jettySize=auto;html=1;entryX=0.995;entryY=0.63;entryDx=0;entryDy=0;entryPerimeter=0;" parent="1" source="21" target="24" edge="1">
                    <mxGeometry relative="1" as="geometry"/>
                </mxCell>
                <mxCell id="31" value="routes" style="edgeLabel;html=1;align=center;verticalAlign=middle;resizable=0;points=[];" parent="30" vertex="1" connectable="0">
                    <mxGeometry x="-0.2511" y="2" relative="1" as="geometry">
                        <mxPoint as="offset"/>
                    </mxGeometry>
                </mxCell>
                <mxCell id="32" value="routes" style="edgeStyle=orthogonalEdgeStyle;rounded=0;orthogonalLoop=1;jettySize=auto;html=1;entryX=0.5;entryY=1;entryDx=0;entryDy=0;" parent="1" source="12" target="10" edge="1">
                    <mxGeometry relative="1" as="geometry"/>
                </mxCell>
                <mxCell id="33" value="app1.foo.com or app1.foo.com" style="edgeStyle=orthogonalEdgeStyle;rounded=0;orthogonalLoop=1;jettySize=auto;html=1;" parent="1" source="35" target="36" edge="1">
                    <mxGeometry relative="1" as="geometry">
                        <Array as="points">
                            <mxPoint x="269" y="930"/>
                            <mxPoint x="393" y="930"/>
                        </Array>
                    </mxGeometry>
                </mxCell>
                <mxCell id="34" value="Request: app[1-2].foo.com" style="edgeStyle=orthogonalEdgeStyle;rounded=0;orthogonalLoop=1;jettySize=auto;html=1;entryX=0.005;entryY=0.59;entryDx=0;entryDy=0;entryPerimeter=0;" parent="1" source="35" target="27" edge="1">
                    <mxGeometry relative="1" as="geometry"/>
                </mxCell>
                <mxCell id="35" value="User" style="shape=umlActor;verticalLabelPosition=bottom;verticalAlign=top;html=1;outlineConnect=0;" parent="1" vertex="1">
                    <mxGeometry x="110" y="960" width="30" height="60" as="geometry"/>
                </mxCell>
                <mxCell id="36" value="" style="aspect=fixed;html=1;points=[];align=center;image;fontSize=12;image=img/lib/azure2/networking/DNS_Zones.svg;" parent="1" vertex="1">
                    <mxGeometry x="361" y="880" width="64" height="64" as="geometry"/>
                </mxCell>
                <mxCell id="37" value="&lt;h1&gt;Deployment Flow&lt;/h1&gt;&lt;div&gt;&lt;span&gt;1. Install Nginx Ingress Controller Helm Chart&lt;/span&gt;&lt;br&gt;&lt;/div&gt;&lt;div&gt;&amp;nbsp; &amp;nbsp; - Creates Nginx Deployment, Service and Azure Public IP&lt;/div&gt;&lt;div&gt;2. Create app1 deployment, service, ingress&lt;/div&gt;&lt;div&gt;&amp;nbsp; &amp;nbsp; - App1 Deployment creates App1 Pod&lt;/div&gt;&lt;div&gt;&amp;nbsp; &amp;nbsp; - App1 Ingress creates rule in Ingress Controller&lt;/div&gt;&lt;div&gt;&lt;br&gt;&lt;/div&gt;" style="text;html=1;strokeColor=none;fillColor=none;spacing=5;spacingTop=-20;whiteSpace=wrap;overflow=hidden;rounded=0;" parent="1" vertex="1">
                    <mxGeometry x="1440" y="70" width="520" height="140" as="geometry"/>
                </mxCell>
                <mxCell id="48" value="" style="group" parent="1" vertex="1" connectable="0">
                    <mxGeometry x="240" y="287" width="80" height="68" as="geometry"/>
                </mxCell>
                <mxCell id="49" value="" style="html=1;dashed=0;whitespace=wrap;fillColor=#2875E2;strokeColor=#ffffff;points=[[0.005,0.63,0],[0.1,0.2,0],[0.9,0.2,0],[0.5,0,0],[0.995,0.63,0],[0.72,0.99,0],[0.5,1,0],[0.28,0.99,0]];shape=mxgraph.kubernetes.icon;prIcon=deploy" parent="48" vertex="1">
                    <mxGeometry x="15" width="50" height="48" as="geometry"/>
                </mxCell>
                <mxCell id="50" value="app" style="text;html=1;strokeColor=none;fillColor=none;align=center;verticalAlign=middle;whiteSpace=wrap;rounded=0;" parent="48" vertex="1">
                    <mxGeometry x="-5" y="48" width="90" height="20" as="geometry"/>
                </mxCell>
                <mxCell id="51" value="&lt;h1&gt;User Flow&lt;/h1&gt;&lt;div&gt;1. DNS&lt;/div&gt;&lt;div&gt;&amp;nbsp; &amp;nbsp; - app1.foo.com DNS record resolves to Public IP of Load Balancer&lt;/div&gt;&lt;div&gt;2. HTTP Request&lt;/div&gt;&lt;div&gt;&amp;nbsp; &amp;nbsp; - Request goes to Public Load Balancer&lt;/div&gt;&lt;div&gt;&amp;nbsp; &amp;nbsp; - Request is routed to one of the VM's in the AKS cluster&lt;/div&gt;&lt;div&gt;&amp;nbsp; &amp;nbsp; - Request is routed to Nginx deployment pod&lt;/div&gt;&lt;div&gt;3. Ingress Routing&lt;/div&gt;&lt;div&gt;&amp;nbsp; &amp;nbsp; - Based upon Ingress rules, request is routed to app1 service&lt;/div&gt;&lt;div&gt;&amp;nbsp; &amp;nbsp; - Request is routed to app1 pod via app1 service&lt;/div&gt;" style="text;html=1;strokeColor=none;fillColor=none;spacing=5;spacingTop=-20;whiteSpace=wrap;overflow=hidden;rounded=0;" parent="1" vertex="1">
                    <mxGeometry x="1440" y="300" width="520" height="190" as="geometry"/>
                </mxCell>
                <mxCell id="52" value="AKS Nodes" style="aspect=fixed;html=1;points=[];align=center;image;fontSize=12;image=img/lib/azure2/compute/VM_Scale_Sets.svg;" parent="1" vertex="1">
                    <mxGeometry x="91" y="56" width="68" height="68" as="geometry"/>
                </mxCell>
                <mxCell id="55" value="" style="group" parent="1" vertex="1" connectable="0">
                    <mxGeometry x="252.5" y="660" width="80" height="68" as="geometry"/>
                </mxCell>
                <mxCell id="56" value="" style="html=1;dashed=0;whitespace=wrap;fillColor=#2875E2;strokeColor=#ffffff;points=[[0.005,0.63,0],[0.1,0.2,0],[0.9,0.2,0],[0.5,0,0],[0.995,0.63,0],[0.72,0.99,0],[0.5,1,0],[0.28,0.99,0]];shape=mxgraph.kubernetes.icon;prIcon=deploy" parent="55" vertex="1">
                    <mxGeometry x="15" width="50" height="48" as="geometry"/>
                </mxCell>
                <mxCell id="57" value="nginx" style="text;html=1;strokeColor=none;fillColor=none;align=center;verticalAlign=middle;whiteSpace=wrap;rounded=0;" parent="55" vertex="1">
                    <mxGeometry y="48" width="80" height="20" as="geometry"/>
                </mxCell>
                <mxCell id="58" value="creates" style="edgeStyle=orthogonalEdgeStyle;rounded=0;orthogonalLoop=1;jettySize=auto;html=1;exitX=0.995;exitY=0.63;exitDx=0;exitDy=0;exitPerimeter=0;entryX=0.5;entryY=1;entryDx=0;entryDy=0;" parent="1" source="56" target="25" edge="1">
                    <mxGeometry relative="1" as="geometry"/>
                </mxCell>
                <mxCell id="59" value="&lt;font style=&quot;font-size: 48px&quot;&gt;MULTI-TENANT&lt;/font&gt;" style="text;html=1;align=center;verticalAlign=middle;resizable=0;points=[];autosize=1;" parent="1" vertex="1">
                    <mxGeometry x="205" y="-105" width="360" height="30" as="geometry"/>
                </mxCell>
                <mxCell id="61" style="edgeStyle=orthogonalEdgeStyle;rounded=0;orthogonalLoop=1;jettySize=auto;html=1;entryX=0.005;entryY=0.63;entryDx=0;entryDy=0;entryPerimeter=0;exitX=0.5;exitY=1;exitDx=0;exitDy=0;" parent="1" source="16" target="24" edge="1">
                    <mxGeometry relative="1" as="geometry">
                        <Array as="points">
                            <mxPoint x="280" y="630"/>
                        </Array>
                    </mxGeometry>
                </mxCell>
                <mxCell id="62" value="creates route" style="edgeLabel;html=1;align=center;verticalAlign=middle;resizable=0;points=[];" parent="61" vertex="1" connectable="0">
                    <mxGeometry x="-0.7496" relative="1" as="geometry">
                        <mxPoint y="12" as="offset"/>
                    </mxGeometry>
                </mxCell>
                <mxCell id="156" value="creates route" style="edgeLabel;html=1;align=center;verticalAlign=middle;resizable=0;points=[];" parent="61" vertex="1" connectable="0">
                    <mxGeometry x="-0.7496" relative="1" as="geometry">
                        <mxPoint x="460" as="offset"/>
                    </mxGeometry>
                </mxCell>
                <mxCell id="63" value="routes&lt;br&gt;app1.foo.com" style="edgeStyle=orthogonalEdgeStyle;rounded=0;orthogonalLoop=1;jettySize=auto;html=1;entryX=0.5;entryY=1;entryDx=0;entryDy=0;" parent="1" source="24" target="13" edge="1">
                    <mxGeometry x="0.6456" relative="1" as="geometry">
                        <mxPoint as="offset"/>
                    </mxGeometry>
                </mxCell>
                <mxCell id="68" value="" style="html=1;dashed=0;whitespace=wrap;fillColor=#2875E2;strokeColor=#ffffff;points=[[0.005,0.63,0],[0.1,0.2,0],[0.9,0.2,0],[0.5,0,0],[0.995,0.63,0],[0.72,0.99,0],[0.5,1,0],[0.28,0.99,0]];shape=mxgraph.kubernetes.icon;prIcon=user" parent="1" vertex="1">
                    <mxGeometry x="1220" y="352" width="50" height="48" as="geometry"/>
                </mxCell>
                <mxCell id="70" value="= User" style="text;html=1;align=center;verticalAlign=middle;resizable=0;points=[];autosize=1;" parent="1" vertex="1">
                    <mxGeometry x="1270" y="366" width="50" height="20" as="geometry"/>
                </mxCell>
                <mxCell id="71" value="= Role" style="text;html=1;align=center;verticalAlign=middle;resizable=0;points=[];autosize=1;" parent="1" vertex="1">
                    <mxGeometry x="1270" y="420" width="50" height="20" as="geometry"/>
                </mxCell>
                <mxCell id="74" value="" style="group" parent="1" vertex="1" connectable="0">
                    <mxGeometry x="1220" y="460" width="140" height="48" as="geometry"/>
                </mxCell>
                <mxCell id="66" value="" style="html=1;dashed=0;whitespace=wrap;fillColor=#2875E2;strokeColor=#ffffff;points=[[0.005,0.63,0],[0.1,0.2,0],[0.9,0.2,0],[0.5,0,0],[0.995,0.63,0],[0.72,0.99,0],[0.5,1,0],[0.28,0.99,0]];shape=mxgraph.kubernetes.icon;prIcon=rb" parent="74" vertex="1">
                    <mxGeometry width="50" height="48" as="geometry"/>
                </mxCell>
                <mxCell id="72" value="= Role Binding" style="text;html=1;align=center;verticalAlign=middle;resizable=0;points=[];autosize=1;" parent="74" vertex="1">
                    <mxGeometry x="50" y="14" width="90" height="20" as="geometry"/>
                </mxCell>
                <mxCell id="75" value="" style="group" parent="1" vertex="1" connectable="0">
                    <mxGeometry x="1220" y="520" width="160" height="48" as="geometry"/>
                </mxCell>
                <mxCell id="67" value="" style="html=1;dashed=0;whitespace=wrap;fillColor=#2875E2;strokeColor=#ffffff;points=[[0.005,0.63,0],[0.1,0.2,0],[0.9,0.2,0],[0.5,0,0],[0.995,0.63,0],[0.72,0.99,0],[0.5,1,0],[0.28,0.99,0]];shape=mxgraph.kubernetes.icon;prIcon=sa" parent="75" vertex="1">
                    <mxGeometry width="50" height="48" as="geometry"/>
                </mxCell>
                <mxCell id="73" value="= Service Account" style="text;html=1;align=center;verticalAlign=middle;resizable=0;points=[];autosize=1;" parent="75" vertex="1">
                    <mxGeometry x="50" y="20" width="110" height="20" as="geometry"/>
                </mxCell>
                <mxCell id="38" value="" style="html=1;dashed=0;whitespace=wrap;fillColor=#2875E2;strokeColor=#ffffff;points=[[0.005,0.63,0],[0.1,0.2,0],[0.9,0.2,0],[0.5,0,0],[0.995,0.63,0],[0.72,0.99,0],[0.5,1,0],[0.28,0.99,0]];shape=mxgraph.kubernetes.icon;prIcon=ns" parent="1" vertex="1">
                    <mxGeometry x="1220" y="40" width="50" height="54" as="geometry"/>
                </mxCell>
                <mxCell id="39" value="= Namespace" style="text;html=1;align=center;verticalAlign=middle;resizable=0;points=[];autosize=1;" parent="1" vertex="1">
                    <mxGeometry x="1270" y="60" width="90" height="20" as="geometry"/>
                </mxCell>
                <mxCell id="40" value="" style="html=1;dashed=0;whitespace=wrap;fillColor=#2875E2;strokeColor=#ffffff;points=[[0.005,0.63,0],[0.1,0.2,0],[0.9,0.2,0],[0.5,0,0],[0.995,0.63,0],[0.72,0.99,0],[0.5,1,0],[0.28,0.99,0]];shape=mxgraph.kubernetes.icon;prIcon=deploy" parent="1" vertex="1">
                    <mxGeometry x="1220" y="112" width="50" height="48" as="geometry"/>
                </mxCell>
                <mxCell id="41" value="" style="html=1;dashed=0;whitespace=wrap;fillColor=#2875E2;strokeColor=#ffffff;points=[[0.005,0.63,0],[0.1,0.2,0],[0.9,0.2,0],[0.5,0,0],[0.995,0.63,0],[0.72,0.99,0],[0.5,1,0],[0.28,0.99,0]];shape=mxgraph.kubernetes.icon;prIcon=pod" parent="1" vertex="1">
                    <mxGeometry x="1220" y="170" width="50" height="48" as="geometry"/>
                </mxCell>
                <mxCell id="42" value="" style="html=1;dashed=0;whitespace=wrap;fillColor=#2875E2;strokeColor=#ffffff;points=[[0.005,0.63,0],[0.1,0.2,0],[0.9,0.2,0],[0.5,0,0],[0.995,0.63,0],[0.72,0.99,0],[0.5,1,0],[0.28,0.99,0]];shape=mxgraph.kubernetes.icon;prIcon=ing" parent="1" vertex="1">
                    <mxGeometry x="1220" y="228" width="50" height="48" as="geometry"/>
                </mxCell>
                <mxCell id="43" value="" style="html=1;dashed=0;whitespace=wrap;fillColor=#2875E2;strokeColor=#ffffff;points=[[0.005,0.63,0],[0.1,0.2,0],[0.9,0.2,0],[0.5,0,0],[0.995,0.63,0],[0.72,0.99,0],[0.5,1,0],[0.28,0.99,0]];shape=mxgraph.kubernetes.icon;prIcon=svc" parent="1" vertex="1">
                    <mxGeometry x="1220" y="292" width="50" height="48" as="geometry"/>
                </mxCell>
                <mxCell id="44" value="&amp;nbsp;= Deployment" style="text;html=1;align=center;verticalAlign=middle;resizable=0;points=[];autosize=1;" parent="1" vertex="1">
                    <mxGeometry x="1270" y="126" width="90" height="20" as="geometry"/>
                </mxCell>
                <mxCell id="45" value="= Pod" style="text;html=1;align=center;verticalAlign=middle;resizable=0;points=[];autosize=1;" parent="1" vertex="1">
                    <mxGeometry x="1270" y="190" width="50" height="20" as="geometry"/>
                </mxCell>
                <mxCell id="46" value="= Ingress&amp;nbsp; (Rule)" style="text;html=1;align=center;verticalAlign=middle;resizable=0;points=[];autosize=1;" parent="1" vertex="1">
                    <mxGeometry x="1270" y="242" width="100" height="20" as="geometry"/>
                </mxCell>
                <mxCell id="47" value="= Service" style="text;html=1;align=center;verticalAlign=middle;resizable=0;points=[];autosize=1;" parent="1" vertex="1">
                    <mxGeometry x="1270" y="306" width="70" height="20" as="geometry"/>
                </mxCell>
                <mxCell id="53" value="" style="aspect=fixed;html=1;points=[];align=center;image;fontSize=12;image=img/lib/azure2/compute/VM_Scale_Sets.svg;" parent="1" vertex="1">
                    <mxGeometry x="1220" y="-22" width="50" height="50" as="geometry"/>
                </mxCell>
                <mxCell id="54" value="= VM Scale Set" style="text;html=1;align=center;verticalAlign=middle;resizable=0;points=[];autosize=1;" parent="1" vertex="1">
                    <mxGeometry x="1270" y="-7" width="100" height="20" as="geometry"/>
                </mxCell>
                <mxCell id="60" value="&lt;font style=&quot;font-size: 24px&quot;&gt;LEGEND&lt;/font&gt;" style="text;html=1;align=center;verticalAlign=middle;resizable=0;points=[];autosize=1;" parent="1" vertex="1">
                    <mxGeometry x="1210" y="-70" width="110" height="20" as="geometry"/>
                </mxCell>
                <mxCell id="79" value="" style="group" parent="1" vertex="1" connectable="0">
                    <mxGeometry x="365" y="-55" width="100" height="68" as="geometry"/>
                </mxCell>
                <mxCell id="77" value="" style="html=1;dashed=0;whitespace=wrap;fillColor=#2875E2;strokeColor=#ffffff;points=[[0.005,0.63,0],[0.1,0.2,0],[0.9,0.2,0],[0.5,0,0],[0.995,0.63,0],[0.72,0.99,0],[0.5,1,0],[0.28,0.99,0]];shape=mxgraph.kubernetes.icon;prIcon=user" parent="79" vertex="1">
                    <mxGeometry x="25" width="50" height="48" as="geometry"/>
                </mxCell>
                <mxCell id="78" value="Tenant 1 Admin" style="text;html=1;align=center;verticalAlign=middle;resizable=0;points=[];autosize=1;" parent="79" vertex="1">
                    <mxGeometry y="48" width="100" height="20" as="geometry"/>
                </mxCell>
                <mxCell id="80" value="" style="group" parent="1" vertex="1" connectable="0">
                    <mxGeometry x="820" y="-68" width="100" height="68" as="geometry"/>
                </mxCell>
                <mxCell id="81" value="" style="html=1;dashed=0;whitespace=wrap;fillColor=#2875E2;strokeColor=#ffffff;points=[[0.005,0.63,0],[0.1,0.2,0],[0.9,0.2,0],[0.5,0,0],[0.995,0.63,0],[0.72,0.99,0],[0.5,1,0],[0.28,0.99,0]];shape=mxgraph.kubernetes.icon;prIcon=user" parent="80" vertex="1">
                    <mxGeometry x="25" width="50" height="48" as="geometry"/>
                </mxCell>
                <mxCell id="82" value="Tenant 2 Admin" style="text;html=1;align=center;verticalAlign=middle;resizable=0;points=[];autosize=1;" parent="80" vertex="1">
                    <mxGeometry y="48" width="100" height="20" as="geometry"/>
                </mxCell>
                <mxCell id="84" value="" style="group" parent="1" vertex="1" connectable="0">
                    <mxGeometry x="264.5" y="190" width="100" height="68" as="geometry"/>
                </mxCell>
                <mxCell id="65" value="" style="html=1;dashed=0;whitespace=wrap;fillColor=#2875E2;strokeColor=#ffffff;points=[[0.005,0.63,0],[0.1,0.2,0],[0.9,0.2,0],[0.5,0,0],[0.995,0.63,0],[0.72,0.99,0],[0.5,1,0],[0.28,0.99,0]];shape=mxgraph.kubernetes.icon;prIcon=role" parent="84" vertex="1">
                    <mxGeometry x="15" width="50" height="48" as="geometry"/>
                </mxCell>
                <mxCell id="83" value="tenant-admin-role" style="text;html=1;align=center;verticalAlign=middle;resizable=0;points=[];autosize=1;" parent="84" vertex="1">
                    <mxGeometry x="-15" y="48" width="110" height="20" as="geometry"/>
                </mxCell>
                <mxCell id="85" value="" style="html=1;dashed=0;whitespace=wrap;fillColor=#2875E2;strokeColor=#ffffff;points=[[0.005,0.63,0],[0.1,0.2,0],[0.9,0.2,0],[0.5,0,0],[0.995,0.63,0],[0.72,0.99,0],[0.5,1,0],[0.28,0.99,0]];shape=mxgraph.kubernetes.icon;prIcon=role" parent="1" vertex="1">
                    <mxGeometry x="1220" y="406" width="50" height="48" as="geometry"/>
                </mxCell>
                <mxCell id="91" style="edgeStyle=orthogonalEdgeStyle;rounded=0;orthogonalLoop=1;jettySize=auto;html=1;" parent="1" source="87" edge="1">
                    <mxGeometry relative="1" as="geometry">
                        <mxPoint x="330" y="214" as="targetPoint"/>
                    </mxGeometry>
                </mxCell>
                <mxCell id="92" style="edgeStyle=orthogonalEdgeStyle;rounded=0;orthogonalLoop=1;jettySize=auto;html=1;" parent="1" source="87" target="78" edge="1">
                    <mxGeometry relative="1" as="geometry"/>
                </mxCell>
                <mxCell id="96" value="" style="group" parent="1" vertex="1" connectable="0">
                    <mxGeometry x="380" y="190" width="90" height="72" as="geometry"/>
                </mxCell>
                <mxCell id="87" value="" style="html=1;dashed=0;whitespace=wrap;fillColor=#2875E2;strokeColor=#ffffff;points=[[0.005,0.63,0],[0.1,0.2,0],[0.9,0.2,0],[0.5,0,0],[0.995,0.63,0],[0.72,0.99,0],[0.5,1,0],[0.28,0.99,0]];shape=mxgraph.kubernetes.icon;prIcon=rb" parent="96" vertex="1">
                    <mxGeometry x="10" width="50" height="48" as="geometry"/>
                </mxCell>
                <mxCell id="88" value="tenant-admin-rb" style="text;html=1;align=center;verticalAlign=middle;resizable=0;points=[];autosize=1;" parent="96" vertex="1">
                    <mxGeometry x="-15" y="52" width="100" height="20" as="geometry"/>
                </mxCell>
                <mxCell id="97" value="" style="group" parent="1" vertex="1" connectable="0">
                    <mxGeometry x="450" y="434" width="100" height="74" as="geometry"/>
                </mxCell>
                <mxCell id="94" value="" style="html=1;dashed=0;whitespace=wrap;fillColor=#2875E2;strokeColor=#ffffff;points=[[0.005,0.63,0],[0.1,0.2,0],[0.9,0.2,0],[0.5,0,0],[0.995,0.63,0],[0.72,0.99,0],[0.5,1,0],[0.28,0.99,0]];shape=mxgraph.kubernetes.icon;prIcon=sa" parent="97" vertex="1">
                    <mxGeometry x="25" width="50" height="48" as="geometry"/>
                </mxCell>
                <mxCell id="95" value="tenant-sa" style="text;html=1;align=center;verticalAlign=middle;resizable=0;points=[];autosize=1;" parent="97" vertex="1">
                    <mxGeometry x="15" y="54" width="70" height="20" as="geometry"/>
                </mxCell>
                <mxCell id="98" value="" style="group" parent="1" vertex="1" connectable="0">
                    <mxGeometry x="465" y="334" width="80" height="72" as="geometry"/>
                </mxCell>
                <mxCell id="99" value="" style="html=1;dashed=0;whitespace=wrap;fillColor=#2875E2;strokeColor=#ffffff;points=[[0.005,0.63,0],[0.1,0.2,0],[0.9,0.2,0],[0.5,0,0],[0.995,0.63,0],[0.72,0.99,0],[0.5,1,0],[0.28,0.99,0]];shape=mxgraph.kubernetes.icon;prIcon=rb" parent="98" vertex="1">
                    <mxGeometry x="10" width="50" height="48" as="geometry"/>
                </mxCell>
                <mxCell id="100" value="tenant-app-rb" style="text;html=1;align=center;verticalAlign=middle;resizable=0;points=[];autosize=1;" parent="98" vertex="1">
                    <mxGeometry x="-10" y="52" width="90" height="20" as="geometry"/>
                </mxCell>
                <mxCell id="101" value="" style="group" parent="1" vertex="1" connectable="0">
                    <mxGeometry x="460" y="242" width="90" height="68" as="geometry"/>
                </mxCell>
                <mxCell id="102" value="" style="html=1;dashed=0;whitespace=wrap;fillColor=#2875E2;strokeColor=#ffffff;points=[[0.005,0.63,0],[0.1,0.2,0],[0.9,0.2,0],[0.5,0,0],[0.995,0.63,0],[0.72,0.99,0],[0.5,1,0],[0.28,0.99,0]];shape=mxgraph.kubernetes.icon;prIcon=role" parent="101" vertex="1">
                    <mxGeometry x="15" width="50" height="48" as="geometry"/>
                </mxCell>
                <mxCell id="103" value="tenant-app-role" style="text;html=1;align=center;verticalAlign=middle;resizable=0;points=[];autosize=1;" parent="101" vertex="1">
                    <mxGeometry x="-10" y="48" width="100" height="20" as="geometry"/>
                </mxCell>
                <mxCell id="104" style="edgeStyle=orthogonalEdgeStyle;rounded=0;orthogonalLoop=1;jettySize=auto;html=1;" parent="1" source="94" target="100" edge="1">
                    <mxGeometry relative="1" as="geometry"/>
                </mxCell>
                <mxCell id="105" style="edgeStyle=orthogonalEdgeStyle;rounded=0;orthogonalLoop=1;jettySize=auto;html=1;entryX=0.5;entryY=0;entryDx=0;entryDy=0;entryPerimeter=0;" parent="1" source="103" target="99" edge="1">
                    <mxGeometry relative="1" as="geometry"/>
                </mxCell>
                <mxCell id="141" value="" style="rounded=0;whiteSpace=wrap;html=1;" parent="1" vertex="1">
                    <mxGeometry x="680" y="180" width="340" height="340" as="geometry"/>
                </mxCell>
                <mxCell id="142" value="" style="group" parent="1" vertex="1" connectable="0">
                    <mxGeometry x="815" y="276" width="120" height="68" as="geometry"/>
                </mxCell>
                <mxCell id="143" value="" style="html=1;dashed=0;whitespace=wrap;fillColor=#2875E2;strokeColor=#ffffff;points=[[0.005,0.63,0],[0.1,0.2,0],[0.9,0.2,0],[0.5,0,0],[0.995,0.63,0],[0.72,0.99,0],[0.5,1,0],[0.28,0.99,0]];shape=mxgraph.kubernetes.icon;prIcon=pod" parent="142" vertex="1">
                    <mxGeometry x="7.5" width="50" height="48" as="geometry"/>
                </mxCell>
                <mxCell id="144" value="app-xxxx" style="text;html=1;strokeColor=none;fillColor=none;align=center;verticalAlign=middle;whiteSpace=wrap;rounded=0;" parent="142" vertex="1">
                    <mxGeometry x="-27.5" y="48" width="120" height="20" as="geometry"/>
                </mxCell>
                <mxCell id="145" value="" style="group" parent="1" vertex="1" connectable="0">
                    <mxGeometry x="815" y="400" width="110" height="70" as="geometry"/>
                </mxCell>
                <mxCell id="146" value="" style="html=1;dashed=0;whitespace=wrap;fillColor=#2875E2;strokeColor=#ffffff;points=[[0.005,0.63,0],[0.1,0.2,0],[0.9,0.2,0],[0.5,0,0],[0.995,0.63,0],[0.72,0.99,0],[0.5,1,0],[0.28,0.99,0]];shape=mxgraph.kubernetes.icon;prIcon=svc" parent="145" vertex="1">
                    <mxGeometry x="7.5" width="50" height="48" as="geometry"/>
                </mxCell>
                <mxCell id="147" value="app" style="text;html=1;strokeColor=none;fillColor=none;align=center;verticalAlign=middle;whiteSpace=wrap;rounded=0;" parent="145" vertex="1">
                    <mxGeometry x="-22.5" y="50" width="110" height="20" as="geometry"/>
                </mxCell>
                <mxCell id="148" value="" style="group" parent="1" vertex="1" connectable="0">
                    <mxGeometry x="687.5" y="396" width="105" height="68" as="geometry"/>
                </mxCell>
                <UserObject label="" link="http://yahoo.com" id="149">
                    <mxCell style="html=1;dashed=0;whitespace=wrap;fillColor=#2875E2;strokeColor=#ffffff;points=[[0.005,0.63,0],[0.1,0.2,0],[0.9,0.2,0],[0.5,0,0],[0.995,0.63,0],[0.72,0.99,0],[0.5,1,0],[0.28,0.99,0]];shape=mxgraph.kubernetes.icon;prIcon=ing" parent="148" vertex="1">
                        <mxGeometry x="27.5" width="50" height="48" as="geometry"/>
                    </mxCell>
                </UserObject>
                <mxCell id="150" value="app2.foo.com" style="text;html=1;strokeColor=none;fillColor=none;align=center;verticalAlign=middle;whiteSpace=wrap;rounded=0;" parent="148" vertex="1">
                    <mxGeometry y="48" width="105" height="20" as="geometry"/>
                </mxCell>
                <mxCell id="151" value="creates" style="edgeStyle=orthogonalEdgeStyle;rounded=0;orthogonalLoop=1;jettySize=auto;html=1;entryX=0.005;entryY=0.63;entryDx=0;entryDy=0;entryPerimeter=0;" parent="1" source="154" target="143" edge="1">
                    <mxGeometry relative="1" as="geometry"/>
                </mxCell>
                <mxCell id="152" value="routes" style="edgeStyle=orthogonalEdgeStyle;rounded=0;orthogonalLoop=1;jettySize=auto;html=1;entryX=0.5;entryY=1;entryDx=0;entryDy=0;" parent="1" source="146" target="144" edge="1">
                    <mxGeometry relative="1" as="geometry"/>
                </mxCell>
                <mxCell id="153" value="" style="group" parent="1" vertex="1" connectable="0">
                    <mxGeometry x="700" y="287" width="80" height="68" as="geometry"/>
                </mxCell>
                <mxCell id="154" value="" style="html=1;dashed=0;whitespace=wrap;fillColor=#2875E2;strokeColor=#ffffff;points=[[0.005,0.63,0],[0.1,0.2,0],[0.9,0.2,0],[0.5,0,0],[0.995,0.63,0],[0.72,0.99,0],[0.5,1,0],[0.28,0.99,0]];shape=mxgraph.kubernetes.icon;prIcon=deploy" parent="153" vertex="1">
                    <mxGeometry x="15" width="50" height="48" as="geometry"/>
                </mxCell>
                <mxCell id="155" value="app" style="text;html=1;strokeColor=none;fillColor=none;align=center;verticalAlign=middle;whiteSpace=wrap;rounded=0;" parent="153" vertex="1">
                    <mxGeometry x="-5" y="48" width="90" height="20" as="geometry"/>
                </mxCell>
                <mxCell id="157" value="" style="group" parent="1" vertex="1" connectable="0">
                    <mxGeometry x="724.5" y="190" width="100" height="68" as="geometry"/>
                </mxCell>
                <mxCell id="158" value="" style="html=1;dashed=0;whitespace=wrap;fillColor=#2875E2;strokeColor=#ffffff;points=[[0.005,0.63,0],[0.1,0.2,0],[0.9,0.2,0],[0.5,0,0],[0.995,0.63,0],[0.72,0.99,0],[0.5,1,0],[0.28,0.99,0]];shape=mxgraph.kubernetes.icon;prIcon=role" parent="157" vertex="1">
                    <mxGeometry x="15" width="50" height="48" as="geometry"/>
                </mxCell>
                <mxCell id="159" value="tenant-admin-role" style="text;html=1;align=center;verticalAlign=middle;resizable=0;points=[];autosize=1;" parent="157" vertex="1">
                    <mxGeometry x="-15" y="48" width="110" height="20" as="geometry"/>
                </mxCell>
                <mxCell id="160" style="edgeStyle=orthogonalEdgeStyle;rounded=0;orthogonalLoop=1;jettySize=auto;html=1;" parent="1" source="162" edge="1">
                    <mxGeometry relative="1" as="geometry">
                        <mxPoint x="790" y="214" as="targetPoint"/>
                    </mxGeometry>
                </mxCell>
                <mxCell id="161" value="" style="group" parent="1" vertex="1" connectable="0">
                    <mxGeometry x="840" y="190" width="90" height="72" as="geometry"/>
                </mxCell>
                <mxCell id="162" value="" style="html=1;dashed=0;whitespace=wrap;fillColor=#2875E2;strokeColor=#ffffff;points=[[0.005,0.63,0],[0.1,0.2,0],[0.9,0.2,0],[0.5,0,0],[0.995,0.63,0],[0.72,0.99,0],[0.5,1,0],[0.28,0.99,0]];shape=mxgraph.kubernetes.icon;prIcon=rb" parent="161" vertex="1">
                    <mxGeometry x="10" width="50" height="48" as="geometry"/>
                </mxCell>
                <mxCell id="163" value="tenant-admin-rb" style="text;html=1;align=center;verticalAlign=middle;resizable=0;points=[];autosize=1;" parent="161" vertex="1">
                    <mxGeometry x="-15" y="52" width="100" height="20" as="geometry"/>
                </mxCell>
                <mxCell id="164" value="" style="group" parent="1" vertex="1" connectable="0">
                    <mxGeometry x="910" y="434" width="100" height="74" as="geometry"/>
                </mxCell>
                <mxCell id="165" value="" style="html=1;dashed=0;whitespace=wrap;fillColor=#2875E2;strokeColor=#ffffff;points=[[0.005,0.63,0],[0.1,0.2,0],[0.9,0.2,0],[0.5,0,0],[0.995,0.63,0],[0.72,0.99,0],[0.5,1,0],[0.28,0.99,0]];shape=mxgraph.kubernetes.icon;prIcon=sa" parent="164" vertex="1">
                    <mxGeometry x="25" width="50" height="48" as="geometry"/>
                </mxCell>
                <mxCell id="166" value="tenant-sa" style="text;html=1;align=center;verticalAlign=middle;resizable=0;points=[];autosize=1;" parent="164" vertex="1">
                    <mxGeometry x="15" y="54" width="70" height="20" as="geometry"/>
                </mxCell>
                <mxCell id="167" value="" style="group" parent="1" vertex="1" connectable="0">
                    <mxGeometry x="925" y="334" width="80" height="72" as="geometry"/>
                </mxCell>
                <mxCell id="168" value="" style="html=1;dashed=0;whitespace=wrap;fillColor=#2875E2;strokeColor=#ffffff;points=[[0.005,0.63,0],[0.1,0.2,0],[0.9,0.2,0],[0.5,0,0],[0.995,0.63,0],[0.72,0.99,0],[0.5,1,0],[0.28,0.99,0]];shape=mxgraph.kubernetes.icon;prIcon=rb" parent="167" vertex="1">
                    <mxGeometry x="10" width="50" height="48" as="geometry"/>
                </mxCell>
                <mxCell id="169" value="tenant-app-rb" style="text;html=1;align=center;verticalAlign=middle;resizable=0;points=[];autosize=1;" parent="167" vertex="1">
                    <mxGeometry x="-10" y="52" width="90" height="20" as="geometry"/>
                </mxCell>
                <mxCell id="170" value="" style="group" parent="1" vertex="1" connectable="0">
                    <mxGeometry x="920" y="242" width="90" height="68" as="geometry"/>
                </mxCell>
                <mxCell id="171" value="" style="html=1;dashed=0;whitespace=wrap;fillColor=#2875E2;strokeColor=#ffffff;points=[[0.005,0.63,0],[0.1,0.2,0],[0.9,0.2,0],[0.5,0,0],[0.995,0.63,0],[0.72,0.99,0],[0.5,1,0],[0.28,0.99,0]];shape=mxgraph.kubernetes.icon;prIcon=role" parent="170" vertex="1">
                    <mxGeometry x="15" width="50" height="48" as="geometry"/>
                </mxCell>
                <mxCell id="172" value="tenant-app-role" style="text;html=1;align=center;verticalAlign=middle;resizable=0;points=[];autosize=1;" parent="170" vertex="1">
                    <mxGeometry x="-10" y="48" width="100" height="20" as="geometry"/>
                </mxCell>
                <mxCell id="173" style="edgeStyle=orthogonalEdgeStyle;rounded=0;orthogonalLoop=1;jettySize=auto;html=1;" parent="1" source="165" target="169" edge="1">
                    <mxGeometry relative="1" as="geometry"/>
                </mxCell>
                <mxCell id="174" style="edgeStyle=orthogonalEdgeStyle;rounded=0;orthogonalLoop=1;jettySize=auto;html=1;entryX=0.5;entryY=0;entryDx=0;entryDy=0;entryPerimeter=0;" parent="1" source="172" target="168" edge="1">
                    <mxGeometry relative="1" as="geometry"/>
                </mxCell>
                <mxCell id="140" value="tenant2" style="html=1;dashed=0;whitespace=wrap;fillColor=#2875E2;strokeColor=#ffffff;points=[[0.005,0.63,0],[0.1,0.2,0],[0.9,0.2,0],[0.5,0,0],[0.995,0.63,0],[0.72,0.99,0],[0.5,1,0],[0.28,0.99,0]];shape=mxgraph.kubernetes.icon;prIcon=ns" parent="1" vertex="1">
                    <mxGeometry x="620" y="150" width="115.5" height="70" as="geometry"/>
                </mxCell>
                <mxCell id="176" style="edgeStyle=orthogonalEdgeStyle;rounded=0;orthogonalLoop=1;jettySize=auto;html=1;" parent="1" source="150" edge="1">
                    <mxGeometry relative="1" as="geometry">
                        <mxPoint x="660" y="650" as="targetPoint"/>
                        <Array as="points">
                            <mxPoint x="740" y="650"/>
                        </Array>
                    </mxGeometry>
                </mxCell>
                <mxCell id="179" style="edgeStyle=orthogonalEdgeStyle;rounded=0;orthogonalLoop=1;jettySize=auto;html=1;entryX=0.5;entryY=1;entryDx=0;entryDy=0;" parent="1" source="24" target="147" edge="1">
                    <mxGeometry relative="1" as="geometry"/>
                </mxCell>
                <mxCell id="180" value="routes&lt;br&gt;app2.foo.com" style="edgeLabel;html=1;align=center;verticalAlign=middle;resizable=0;points=[];" parent="179" vertex="1" connectable="0">
                    <mxGeometry x="0.6055" y="-1" relative="1" as="geometry">
                        <mxPoint as="offset"/>
                    </mxGeometry>
                </mxCell>
                <mxCell id="183" value="&lt;h1&gt;Scenarios&lt;/h1&gt;&lt;div&gt;1. Single tenant app moved to K8S and want to use single cluster to house multiple instances of app, one for each tenant&lt;/div&gt;&lt;div&gt;2. Enterprise has single cluster with different teams, each using single namespace. (e.g. dev and test, or one NS per Business Unit)&lt;/div&gt;" style="text;html=1;strokeColor=none;fillColor=none;spacing=5;spacingTop=-20;whiteSpace=wrap;overflow=hidden;rounded=0;" vertex="1" parent="1">
                    <mxGeometry x="1440" y="540" width="520" height="190" as="geometry"/>
                </mxCell>
            </root>
        </mxGraphModel>
    </diagram>
</mxfile>